<svg xmlns="http://www.w3.org/2000/svg" viewBox="0 0 841.9 841.9" width="100" height="100">
  <g fill="none" stroke="#0E4D92" stroke-width="15"> <!-- Couleur bleue plus forte -->
    <circle cx="420.95" cy="420.95" r="320.95" />
    <path d="M420.95 119.85C322.85 119.85 239.8 210.5 239.8 320.6c0 110.1 83.05 200.75 181.15 200.75s181.15-90.65 181.15-200.75c0-110.1-83.05-200.75-181.15-200.75z" />
    <path d="M420.95 119.85c-46.9 0-92.05 18.5-126.85 52.15s-52.15 79.9-52.15 126.85c0 46.9 18.5 92.05 52.15 126.85s79.95 52.15 126.85 52.15c46.9 0 92.05-18.5 126.85-52.15s52.15-79.95 52.15-126.85c0-46.9-18.5-92.05-52.15-126.85S467.85 119.85 420.95 119.85z" />
  </g>
</svg>
